# xmcd CD database file
#
# Track frame offsets:
#	150
#	41617
#	80335
#	133110
#	184525
#	226160
#
# Disc length: 3600 seconds
#
# Revision: 0
# Processed by: cddbd v1.5.2PL0 Copyright (c) Steve Scherf et al.
# Submitted via: CDex 1.51
#
DISCID=410e0e06
DTITLE=SFJazz Collective  Live 2008 - Live 2008 - Disc 3
DYEAR=2008
DGENRE=Jazz
TTITLE0=Frontline
TTITLE1=The Angels' Share 
TTITLE2=This, That and the Other 
TTITLE3=The Road to Dharma 
TTITLE4=Aung San Suu Kyi 
TTITLE5=Footprints
EXTD=YEAR: 2008
EXTT0=
EXTT1=
EXTT2=
EXTT3=
EXTT4=
EXTT5=
PLAYORDER=
